
<svg xmlns="http://www.w3.org/2000/svg" viewBox="0 0 24 24" fill="#ffffff">
  <path d="M12 .5C5.37.5 0 5.87 0 12.5c0 5.29 3.438 9.788 8.205 11.387.6.111.82-.261.82-.579 0-.286-.011-1.044-.017-2.051-3.338.724-4.042-1.613-4.042-1.613-.546-1.387-1.333-1.758-1.333-1.758-1.089-.744.082-.729.082-.729 1.205.085 1.84 1.238 1.84 1.238 1.07 1.834 2.809 1.304 3.495.997.109-.775.419-1.305.762-1.605-2.665-.304-5.467-1.332-5.467-5.931 0-1.31.469-2.382 1.235-3.221-.123-.303-.535-1.523.117-3.176 0 0 1.008-.322 3.301 1.23a11.54 11.54 0 0 1 3.004-.403c1.02.005 2.046.137 3.005.403 2.292-1.552 3.298-1.23 3.298-1.23.653 1.653.241 2.873.118 3.176.77.839 1.233 1.911 1.233 3.221 0 4.61-2.807 5.625-5.479 5.921.43.37.814 1.099.814 2.213 0 1.597-.014 2.884-.014 3.276 0 .32.216.694.825.576C20.565 22.285 24 17.788 24 12.5 24 5.87 18.627.5 12 .5z"/>
</svg>
